solid STL generated by MeshLab
  facet normal  1.000000e+00  0.000000e+00  0.000000e+00
    outer loop
      vertex   1.750000e+02  1.270000e+01  3.200000e+00
      vertex   1.750000e+02  0.000000e+00  3.200000e+00
      vertex   1.750000e+02  1.270000e+01  0.000000e+00
    endloop
  endfacet
  facet normal  1.000000e+00  0.000000e+00  0.000000e+00
    outer loop
      vertex   1.750000e+02  1.270000e+01  0.000000e+00
      vertex   1.750000e+02  0.000000e+00  3.200000e+00
      vertex   1.750000e+02  0.000000e+00  0.000000e+00
    endloop
  endfacet
  facet normal -0.000000e+00  1.000000e+00  0.000000e+00
    outer loop
      vertex   0.000000e+00  1.270000e+01  3.200000e+00
      vertex   1.750000e+02  1.270000e+01  3.200000e+00
      vertex   0.000000e+00  1.270000e+01  0.000000e+00
    endloop
  endfacet
  facet normal  0.000000e+00  1.000000e+00  0.000000e+00
    outer loop
      vertex   0.000000e+00  1.270000e+01  0.000000e+00
      vertex   1.750000e+02  1.270000e+01  3.200000e+00
      vertex   1.750000e+02  1.270000e+01  0.000000e+00
    endloop
  endfacet
  facet normal -1.000000e+00  0.000000e+00  0.000000e+00
    outer loop
      vertex   0.000000e+00  0.000000e+00  3.200000e+00
      vertex   0.000000e+00  1.270000e+01  3.200000e+00
      vertex   0.000000e+00  0.000000e+00  0.000000e+00
    endloop
  endfacet
  facet normal -1.000000e+00  0.000000e+00  0.000000e+00
    outer loop
      vertex   0.000000e+00  0.000000e+00  0.000000e+00
      vertex   0.000000e+00  1.270000e+01  3.200000e+00
      vertex   0.000000e+00  1.270000e+01  0.000000e+00
    endloop
  endfacet
  facet normal -0.000000e+00 -1.000000e+00 -0.000000e+00
    outer loop
      vertex   1.750000e+02  0.000000e+00  3.200000e+00
      vertex   0.000000e+00  0.000000e+00  3.200000e+00
      vertex   1.750000e+02  0.000000e+00  0.000000e+00
    endloop
  endfacet
  facet normal  0.000000e+00 -1.000000e+00  0.000000e+00
    outer loop
      vertex   1.750000e+02  0.000000e+00  0.000000e+00
      vertex   0.000000e+00  0.000000e+00  3.200000e+00
      vertex   0.000000e+00  0.000000e+00  0.000000e+00
    endloop
  endfacet
  facet normal -0.000000e+00  0.000000e+00  1.000000e+00
    outer loop
      vertex   0.000000e+00  1.270000e+01  3.200000e+00
      vertex   0.000000e+00  0.000000e+00  3.200000e+00
      vertex   1.750000e+02  1.270000e+01  3.200000e+00
    endloop
  endfacet
  facet normal  0.000000e+00  0.000000e+00  1.000000e+00
    outer loop
      vertex   1.750000e+02  1.270000e+01  3.200000e+00
      vertex   0.000000e+00  0.000000e+00  3.200000e+00
      vertex   1.750000e+02  0.000000e+00  3.200000e+00
    endloop
  endfacet
  facet normal  0.000000e+00  0.000000e+00 -1.000000e+00
    outer loop
      vertex   0.000000e+00  0.000000e+00  0.000000e+00
      vertex   0.000000e+00  1.270000e+01  0.000000e+00
      vertex   1.750000e+02  0.000000e+00  0.000000e+00
    endloop
  endfacet
  facet normal  0.000000e+00  0.000000e+00 -1.000000e+00
    outer loop
      vertex   1.750000e+02  0.000000e+00  0.000000e+00
      vertex   0.000000e+00  1.270000e+01  0.000000e+00
      vertex   1.750000e+02  1.270000e+01  0.000000e+00
    endloop
  endfacet
endsolid vcg
